<svg xmlns="http://www.w3.org/2000/svg" version="1.1" xmlns:xlink="http://www.w3.org/1999/xlink" xmlns:svgjs="http://svgjs.dev/svgjs" width="1440" height="250" preserveAspectRatio="none" viewBox="0 0 1440 250"><g mask="url(&quot;#SvgjsMask1006&quot;)" fill="none"><path d="M10 250L260 0L365 0L115 250z" fill="url(&quot;#SvgjsLinearGradient1007&quot;)"></path><path d="M259.6 250L509.6 0L706.1 0L456.1 250z" fill="url(&quot;#SvgjsLinearGradient1007&quot;)"></path><path d="M488.20000000000005 250L738.2 0L1092.2 0L842.2 250z" fill="url(&quot;#SvgjsLinearGradient1007&quot;)"></path><path d="M743.8000000000001 250L993.8000000000001 0L1211.3000000000002 0L961.3000000000001 250z" fill="url(&quot;#SvgjsLinearGradient1007&quot;)"></path><path d="M1409 250L1159 0L1012 0L1262 250z" fill="url(&quot;#SvgjsLinearGradient1008&quot;)"></path><path d="M1193.4 250L943.4000000000001 0L893.9000000000001 0L1143.9 250z" fill="url(&quot;#SvgjsLinearGradient1008&quot;)"></path><path d="M940.8 250L690.8 0L633.8 0L883.8 250z" fill="url(&quot;#SvgjsLinearGradient1008&quot;)"></path><path d="M706.1999999999999 250L456.19999999999993 0L375.19999999999993 0L625.1999999999999 250z" fill="url(&quot;#SvgjsLinearGradient1008&quot;)"></path><path d="M1267.0450209786438 250L1440 77.04502097864392L1440 250z" fill="url(&quot;#SvgjsLinearGradient1007&quot;)"></path><path d="M0 250L172.95497902135608 250L 0 77.04502097864392z" fill="url(&quot;#SvgjsLinearGradient1008&quot;)"></path></g><defs><mask id="SvgjsMask1006"><rect width="1440" height="250" fill="#ffffff"></rect></mask><linearGradient x1="0%" y1="100%" x2="100%" y2="0%" id="SvgjsLinearGradient1007"><stop stop-color="rgba(15, 70, 185, 0.12549019607843137)" offset="0"></stop><stop stop-opacity="0" stop-color="rgba(15, 70, 185, 0.12549019607843137)" offset="0.66"></stop></linearGradient><linearGradient x1="100%" y1="100%" x2="0%" y2="0%" id="SvgjsLinearGradient1008"><stop stop-color="rgba(15, 70, 185, 0.12549019607843137)" offset="0"></stop><stop stop-opacity="0" stop-color="rgba(15, 70, 185, 0.12549019607843137)" offset="0.66"></stop></linearGradient></defs></svg>